<svg width="646" viewBox="0 0 646 272" height="272" xmlns:xlink="http://www.w3.org/1999/xlink" xmlns="http://www.w3.org/2000/svg">
    <style type="text/css"><![CDATA[
.st2 {fill:#1f6391;font-family:宋体;font-size:10pt}
.st1 {fill:#ffffff;font-family:宋体;font-size:10pt}
]]></style>
    <defs/>
    <g transform="translate(-259,-141)">
        <g id="shape1" transform="translate(610,242)">
            <path fill="#ffc37c" stroke="#ffc37c" d="M170,70L170,0L0,0L0,70L170,70z"/>
            <text class="st1">
                <tspan x="26" y="39.5">jupiter-extension</tspan>
            </text>
        </g>
        <g id="shape2" transform="translate(260,242)">
            <path fill="#83b3e3" stroke="#83b3e3" d="M316,70L316,0L0,0L0,70L316,70z"/>
            <text class="st1">
                <tspan x="85" y="39.5">junit-platform-engine</tspan>
            </text>
        </g>
        <g id="shape3" transform="translate(260,142)">
            <path fill="#3498db" stroke="#3498db" d="M90,47.7L90,0L0,0L0,47.7L90,47.7z"/>
            <text class="st1">
                <tspan x="24" y="28.4">junit4</tspan>
            </text>
        </g>
        <g id="shape4" transform="translate(373,142)">
            <path fill="#3498db" stroke="#3498db" d="M90,47.7L90,0L0,0L0,47.7L90,47.7z"/>
            <text class="st1">
                <tspan x="24" y="28.4">junit5</tspan>
            </text>
        </g>
        <g id="shape5" transform="translate(486,142)">
            <path fill="#3498db" stroke="#3498db" d="M90,47.7L90,0L0,0L0,47.7L90,47.7z"/>
            <text class="st1">
                <tspan x="24" y="28.4">testNg</tspan>
            </text>
        </g>
        <g id="shape6" transform="translate(305,189.73)">
            <path fill="none" stroke="#236ea1" d="M0,0L0,46.9"/>
            <path fill="#236ea1" stroke-linecap="round" stroke="#236ea1" stroke-width="1" d="M0,51.3L3,46.1C2.1,46.6,1.1,46.9,0,46.9C-1.1,46.9,-2.1,46.6,-3,46.1L0,51.3"/>
        </g>
        <g id="shape7" transform="translate(418,189.73)">
            <path fill="none" stroke="#236ea1" d="M0,0L0,47.9"/>
            <path fill="#236ea1" stroke-linecap="round" stroke="#236ea1" stroke-width="1" d="M0,52.3L3,47.1C2.1,47.6,1.1,47.9,0,47.9C-1.1,47.9,-2.1,47.6,-3,47.1L0,52.3"/>
        </g>
        <g id="shape8" transform="translate(531,189.73)">
            <path fill="none" stroke="#236ea1" d="M0,0L0,46.9"/>
            <path fill="#236ea1" stroke-linecap="round" stroke="#236ea1" stroke-width="1" d="M0,51.3L3,46.1C2.1,46.6,1.1,46.9,0,46.9C-1.1,46.9,-2.1,46.6,-3,46.1L0,51.3"/>
        </g>
        <g id="shape9" transform="translate(650,142)">
            <path fill="#00b4f0" stroke="#00b4f0" d="M90,47.7L90,0L0,0L0,47.7L90,47.7z"/>
            <text class="st1">
                <tspan x="21" y="28.4">jmockit</tspan>
            </text>
        </g>
        <g id="shape10" transform="translate(695,189.73)">
            <path fill="none" stroke="#236ea1" d="M0,0L0,47.9"/>
            <path fill="#236ea1" stroke-linecap="round" stroke="#236ea1" stroke-width="1" d="M0,52.3L3,47.1C2.1,47.6,1.1,47.9,0,47.9C-1.1,47.9,-2.1,47.6,-3,47.1L0,52.3"/>
        </g>
        <g id="shape11" transform="translate(511,364.27)">
            <path fill="#ffc37c" stroke="#ffc37c" d="M92,47.7L92,0L0,0L0,47.7L92,47.7z"/>
            <text class="st1">
                <tspan x="4" y="28.4">dataProvider</tspan>
            </text>
        </g>
        <g id="shape12" transform="translate(610,364.27)">
            <path fill="#ffc37c" stroke="#ffc37c" d="M90,47.7L90,0L0,0L0,47.7L90,47.7z"/>
            <text class="st1">
                <tspan x="21" y="28.4">repoter</tspan>
            </text>
        </g>
        <g id="shape13" transform="translate(707,364.27)">
            <path fill="#ffc37c" stroke="#ffc37c" d="M90,47.7L90,0L0,0L0,47.7L90,47.7z"/>
            <text class="st1">
                <tspan x="24" y="28.4">dbUtil</tspan>
            </text>
        </g>
        <g id="shape14" transform="translate(407,364.27)">
            <path fill="#ffc37c" stroke="#ffc37c" d="M90,47.7L90,0L0,0L0,47.7L90,47.7z"/>
            <text class="st1">
                <tspan x="35" y="28.4">...</tspan>
            </text>
        </g>
        <g id="shape15" transform="translate(452,364.27)">
            <path fill="none" stroke="#236ea1" d="M0,0L0,-20.3L243,-20.3L243,-47.9"/>
            <path fill="#236ea1" stroke-linecap="round" stroke="#236ea1" stroke-width="1" d="M243,-52.3L240,-47.1C240.9,-47.6,241.9,-47.9,243,-47.9C244.1,-47.9,245.1,-47.6,246,-47.1L243,-52.3"/>
        </g>
        <g id="shape16" transform="translate(557,364.27)">
            <path fill="none" stroke="#236ea1" d="M0,0L0,-20.3L138,-20.3L138,-47.9"/>
            <path fill="#236ea1" stroke-linecap="round" stroke="#236ea1" stroke-width="1" d="M138,-52.3L135,-47.1C135.9,-47.6,136.9,-47.9,138,-47.9C139.1,-47.9,140.1,-47.6,141,-47.1L138,-52.3"/>
        </g>
        <g id="shape17" transform="translate(655,364.27)">
            <path fill="none" stroke="#236ea1" d="M0,0L0,-20.3L40,-20.3L40,-47.9"/>
            <path fill="#236ea1" stroke-linecap="round" stroke="#236ea1" stroke-width="1" d="M40,-52.3L37,-47.1C37.9,-47.6,38.9,-47.9,40,-47.9C41.1,-47.9,42.1,-47.6,43,-47.1L40,-52.3"/>
        </g>
        <g id="shape18" transform="translate(752,364.27)">
            <path fill="none" stroke="#236ea1" d="M0,0L0,-20.3L-57,-20.3L-57,-47.9"/>
            <path fill="#236ea1" stroke-linecap="round" stroke="#236ea1" stroke-width="1" d="M-57,-52.3L-60,-47.1C-59.1,-47.6,-58.1,-47.9,-57,-47.9C-55.9,-47.9,-54.9,-47.6,-54,-47.1L-57,-52.3"/>
            <rect fill="#ffffff" width="39.9" height="15" x="-76.4" y="-39.8"/>
            <text class="st2">
                <tspan x="-76.5" y="-27.8">工具类</tspan>
            </text>
        </g>
        <g id="shape19" transform="translate(269,364.27)">
            <path fill="#83b3e3" stroke="#83b3e3" d="M90,47.7L90,0L0,0L0,47.7L90,47.7z"/>
            <text class="st1">
                <tspan x="7" y="28.4">luckyEngine</tspan>
            </text>
        </g>
        <g id="shape20" transform="translate(314,364.27)">
            <path fill="none" stroke="#236ea1" d="M0,0L0,-47.9"/>
            <path fill="#236ea1" stroke-linecap="round" stroke="#236ea1" stroke-width="1" d="M0,-52.3L-3,-47.1C-2.1,-47.6,-1.1,-47.9,0,-47.9C1.1,-47.9,2.1,-47.6,3,-47.1L0,-52.3"/>
        </g>
        <path fill="#3498db" id="shape21" stroke="#3498db" d="M11.9,.3C13.5,.8,14.2,1.3,14.3,1.6C14.5,1.9,14.6,2.1,14.6,2.4C14.6,2.7,14.4,3.1,14.2,3.3C14,3.6,13.9,3.8,13.7,3.8C13.5,3.8,13.4,3.4,13.3,2.8C13,2,12.6,1.1,11.9,.3zM10,9.9L14.4,9.9C14.8,9.3,15.1,8.7,15.4,8.2C15.7,7.7,16,7.1,16.3,6.4L18,7.9C14.2,12.4,10.9,15.5,7.1,17.4C9.6,15.4,12,13.2,14.1,10.3C11.5,10.6,9.9,11,9.4,11.5L8.6,9.8C9.2,9.7,9.9,9.2,10.6,8.1C11.3,7,11.9,5.8,12.4,4.6L9.4,4.6L7.9,4L17.9,4L19,2.9L20.7,4.6L12.7,4.6L14.3,5.7C12.4,7.4,11.3,8.7,10,9.9zM17.8,10.6L19.6,12C17.7,13.7,16.5,14.9,15.3,16.1C17.4,17.3,18.7,18.2,19.1,18.7C19.6,19.2,19.8,19.6,19.8,20C19.8,20.2,19.7,20.5,19.5,20.8C19.4,21.1,19.3,21.2,19.1,21.2C18.9,21.2,18.6,20.8,18.2,20C17.6,18.9,16.5,17.7,14.9,16.5C12.4,18.8,9.5,20.4,6.3,21.4C11.3,18.9,15.2,15.4,17.8,10.6zM4.9,16.5C4.9,17.3,4.9,18.7,4.9,20.9L3.5,21.6C3.5,18,3.6,14.3,3.6,10.4C2.6,12.8,1.4,14.7,0,16.4C1.5,13.3,2.7,10,3.5,6.2L1.5,6.2L0,5.7L3.6,5.7C3.6,3.7,3.5,1.8,3.5,0L5.6,1L4.9,5.7L6,5.7L7,4.7L8.6,6.2L4.9,6.2L4.9,8.5C6.1,9,6.9,9.4,7.3,9.7C7.6,10.1,7.8,10.4,7.8,10.8C7.8,11.1,7.7,11.4,7.6,11.7C7.5,12,7.4,12.2,7.3,12.2C7.1,12.2,6.8,11.8,6.5,11.2C6,10.3,5.5,9.5,4.9,9L4.9,16.5zM32.1,1.5C33.6,2.3,34.7,3.1,35.3,3.7C36,4.3,36.3,4.9,36.2,5.5C36.1,6.2,35.9,6.6,35.7,6.8C35.4,7,35.3,7.1,35.1,7.1C34.8,7.1,34.6,6.7,34.3,5.9C34,4.8,33.1,3.4,32.1,1.5zM29.5,5.4L31.8,6.6L30.9,16.7C30.9,17.9,31.3,18.5,32.2,18.6L37.4,18.6C38.1,18.5,38.5,18,38.7,17C38.8,16,38.9,14.8,39,13.2C39.4,14.8,39.5,16,39.7,16.8C39.8,17.6,40.2,18.1,40.9,18.3C40.4,19.3,39.5,19.8,38.3,19.8L31.5,19.8C30.1,19.7,29.4,18.8,29.6,17L29.6,9.5C29.6,7.9,29.5,6.6,29.5,5.4zM26.5,8.7C27,10.6,26.9,12.1,26.8,13C26.7,13.9,26.4,14.5,26,14.8C25.6,15.1,25.3,15.3,24.9,15.3C24.7,15.3,24.5,15.2,24.2,15.1C23.9,15.1,23.8,14.9,23.8,14.7C23.8,14.4,24.1,14,24.6,13.4C25.4,12.4,26.1,10.9,26.5,8.7zM39.8,8.6C41.9,10.1,43,11.2,43.4,11.8C43.7,12.4,43.9,13,43.7,13.6C43.6,14.2,43.4,14.6,43.2,14.8C43,14.9,42.8,15,42.6,15C42.3,15,42.1,14.6,42,13.7C41.8,12.6,41.1,10.9,39.8,8.6zM53.1,9.2L63,9.2L64.1,8.1L65.7,9.7L56.1,9.7C55.2,9.7,54.5,9.8,53.1,9.2zM61.4,16.2C62.6,16.9,63.6,17.5,64.4,18.2C65.2,18.9,65.7,19.5,65.7,20C65.8,20.4,65.7,20.8,65.4,21.1C65.2,21.4,65,21.5,65,21.5C64.8,21.5,64.7,21.4,64.6,21.2C64.4,20.8,64.1,20.3,63.7,19.6C60.8,19.8,58.5,20.1,56.8,20.3C55.1,20.6,53.9,20.9,53.4,21.2L52.4,19.5C53.2,19.4,54.2,18.7,55.4,17.2C56.5,15.7,57.3,14.5,57.8,13.4L54.3,13.4C53.5,13.4,52.7,13.5,52.1,13.6L64.6,12.8L65.8,11.6L67.5,13.4L58,13.4L59.8,14.6C59.2,14.7,58.5,15.3,57.5,16.3C56.5,17.3,55.4,18.4,54.1,19.5L63.5,19.2C63,18.4,62.2,17.5,61.4,16.2zM51.2,2.2L51.2,5.3L64,5.3L64,2.2L51.2,2.2zM46.4,21.4C47.6,19.6,48.4,17.8,48.9,15.9C49.4,14,49.6,12.2,49.7,10.3C49.8,8.4,49.8,6.7,49.8,5.2C49.8,3.6,49.8,2.2,49.7,.9L51.2,1.6L63.9,1.6L66.1,2C65.3,3.2,65.3,3.9,65.3,4.6C65.3,5.3,65.4,5.9,65.4,6.4L64,7L64,5.9L51.2,5.9C51.2,7.7,51.1,9.5,50.9,11.4C50.7,13.3,50.3,15.1,49.7,16.7C49.2,18.4,48.1,20,46.4,21.4z" transform="translate(836,276.49)"/>
        <path fill="#3498db" id="shape22" stroke="#3498db" d="M7.8,4.4L7.8,6.5L10.7,6.5L10.7,4.4L7.8,4.4zM7.8,7L7.8,9.4L10.7,9.4L10.7,7L7.8,7zM7.8,9.9L7.8,12.3L10.7,12.3L10.7,9.9L7.8,9.9zM11.8,7L11.8,9.4L14.6,9.4L14.6,7L11.8,7zM11.8,9.9L11.8,12.3L14.6,12.3L14.6,9.9L11.8,9.9zM5.2,.3C6.6,.8,7.4,1.3,7.6,1.6C7.9,2,7.9,2.3,7.8,2.7C7.7,3.1,7.5,3.4,7.3,3.6C7,3.7,6.8,3.5,6.6,2.9C6.5,2.3,6,1.4,5.2,.3zM6.6,20.1C6.7,18.2,6.7,16.9,6.7,15.9L6.7,13C5.2,15.9,3,18.1,0,19.7C2.4,17.6,4.3,15.4,5.4,12.8L3.6,12.8L2.5,13L6.7,12.3L6.7,9.9L1.6,9.9L.5,10L6.7,9.4L6.7,7L3.7,7L2.6,7.1L6.7,6.5L6.7,4.4L2.1,4.4L1,4.6L10.5,3.9C11.4,2.2,12,.9,12.2,0L13.9,1.2C12.5,2.3,11.8,3.1,11.1,3.9L16.2,3.9L17.3,2.8L18.9,4.4L11.8,4.4L11.8,6.5L14.5,6.5L16.5,6.8L15.7,9.4L17.1,9.4L18.1,8.3L19.6,9.9L15.7,9.9C15.7,11.6,15.8,12.7,15.8,13.2L14.6,13.6L12.9,12.8C13.6,14.4,14.4,15.5,15.4,16.4C16.4,17.2,17.5,17.8,19,18.2C18,18.4,17.4,18.8,17.1,19.4C15.9,18.6,14.9,17.7,14.2,16.7C13.5,15.6,12.9,14.4,12.4,12.8L11.8,17.3C11.8,17.9,11.8,18.7,11.9,19.5L10.6,20C10.7,18.6,10.7,17.4,10.7,16.3L10.7,12.8L7.8,12.8L7.8,16.8C7.8,17.7,7.8,18.6,7.9,19.6L6.6,20.1zM27.6,4.4L29.2,5.8C28.7,5.8,28,6.2,26.9,7.1C25.9,8.1,24.5,9,22.7,9.9C24.9,8.1,26.6,6.3,27.6,4.4zM32.9,4.9C35.3,5.8,36.9,6.4,37.7,6.9C38.4,7.3,38.7,7.9,38.6,8.5C38.5,9.1,38.3,9.4,38.1,9.4C37.9,9.4,37.6,9.2,37.2,8.7C36.6,7.8,35.1,6.6,32.9,4.9zM30.9,5.9L32.6,7.1C33.2,9.4,34.8,10.6,36.4,11.3C38,12.1,39.5,12.5,41.1,12.6C40.2,13.1,39.6,13.5,39.4,14.2C37.8,13.6,36.4,12.8,34.9,11.7C33.5,10.7,32.3,9.4,31.3,8C30.1,9.7,28.7,11.1,27.2,12.3L34.6,13L36.7,13.4C36,16.6,36,18.4,36,19.3L34.8,19.9L34.8,18.7L27.9,18.7L26.6,20C26.7,18.8,26.7,16.4,26.7,12.7C25.3,13.7,23.6,14.5,21.6,15C23.2,14,24.6,13.2,25.7,12.3C26.8,11.4,27.8,10.4,28.7,9.3C29.6,8.2,30.4,7.1,30.9,5.9zM27.9,13.5L27.9,18.2L34.8,18.2L34.8,13.5L27.9,13.5zM29.3,.3C30.6,.3,31.3,.6,31.7,.9C32.1,1.1,32.3,1.4,32.3,1.8C32.3,2,32.2,2.3,32,2.6C31.9,3,31.7,3.1,31.6,3.1C31.5,3.1,31.3,2.9,31.1,2.5C30.8,1.8,30.2,1,29.3,.3zM37.4,5.7L38.4,3.7L24.3,3.7C24.4,4.5,24.4,5.2,24.1,5.6C23.8,6.1,23.5,6.3,23,6.2C22.6,6.1,22.4,6,22.4,5.9C22.4,5.6,22.5,5.4,22.8,5C23.3,4.3,23.7,3.4,23.9,2.2L24.3,3.2L38.3,3.2L40.6,4C39.8,4,38.8,4.6,37.4,5.7zM49.2,8.4L58.4,8.4L59.4,7.4L61,8.9L52,8.9C51.2,8.9,50.5,9,49.2,8.4zM57,15C58,15.6,59,16.2,59.7,16.8C60.5,17.5,60.9,18,61,18.4C61,18.9,60.9,19.3,60.7,19.5C60.5,19.8,60.3,19.9,60.3,19.9C60.1,19.9,60,19.8,59.9,19.6C59.7,19.2,59.4,18.7,59.1,18.1C56.4,18.3,54.3,18.6,52.7,18.8C51,19,50,19.3,49.5,19.6L48.6,18C49.4,18,50.3,17.3,51.3,15.9C52.4,14.5,53.2,13.3,53.6,12.3L50.3,12.3C49.6,12.3,48.9,12.4,48.3,12.6L59.9,11.8L61,10.7L62.7,12.3L53.8,12.3L55.4,13.4C54.9,13.6,54.2,14.1,53.3,15C52.4,16,51.3,17,50.2,18L58.9,17.8C58.4,17,57.7,16.1,57,15zM47.4,2L47.4,4.8L59.3,4.8L59.3,2L47.4,2zM43,19.8C44.1,18.2,44.9,16.5,45.3,14.7C45.8,12.9,46,11.2,46.1,9.5C46.1,7.8,46.2,6.2,46.2,4.7C46.2,3.3,46.1,2,46.1,.8L47.4,1.4L59.3,1.4L61.3,1.8C60.6,2.9,60.6,3.6,60.6,4.2C60.6,4.9,60.6,5.4,60.7,5.9L59.3,6.4L59.3,5.4L47.4,5.4C47.4,7.1,47.4,8.8,47.2,10.5C47,12.3,46.7,13.9,46.1,15.5C45.6,17,44.6,18.5,43,19.8z" transform="translate(836,155.83)"/>
        <path fill="#3498db" id="shape23" stroke="#3498db" d="M12.2,.3C13.5,1,14.3,1.5,14.6,1.7C14.9,2,15.1,2.3,15.1,2.7C15,3.1,14.9,3.3,14.7,3.5C14.5,3.6,14.4,3.7,14.3,3.7C14,3.7,13.9,3.5,13.7,3C13.4,2.3,12.8,1.5,12.2,.3zM10.2,4.1L16.8,4.1L17.8,3.1L19.4,4.6L10.2,4.6C10.3,8.5,10.1,11.4,9.7,13.4C9.3,15.5,8,17.4,5.8,19.3C7.2,17.5,8.2,15.7,8.6,13.6C9,11.5,9.1,8.1,9,3.4L10.2,4.1zM0,10.7C.8,10.5,2.2,10.1,4,9.5L4,5.3L1.7,5.3L0,4.8L4,4.8C4,3,4,1.4,3.9,0L5.9,.9L5.1,4.8L7.1,3.8L8.6,5.3L5.1,5.3L5.1,9.1L8.2,8L5.1,9.9L5.1,17.1C5.1,18,4.5,18.7,3.3,19.2C3.4,18.5,2.6,17.9,.8,17.3C2.2,17.1,3.1,17.2,3.4,17.2C3.8,17.2,4,16.9,4,16.3L4,10.4C2.1,11.3,1.1,11.9,1.1,12.3L0,10.7zM25.3,1.7L25.3,4.2L37,4.2L37,1.7L25.3,1.7zM30.1,8.4L30.1,11.1L33.6,11.1L33.6,8.4L30.1,8.4zM21.4,19C22.3,17.4,23,15.9,23.4,14.3C23.8,12.8,24,11.2,24.1,9.5C24.1,7.7,24.1,6.1,24.1,4.6C24.1,3,24.1,1.7,24.1,.5L25.3,1.2L36.8,1.2L38.8,1.3C38.2,3.5,38.2,4.6,38.2,5.2L37,5.6L25.3,4.7C25.3,7.2,25.2,9.1,25.1,10.5C25,11.8,24.7,13.2,24.3,14.7C23.9,16.1,23,17.6,21.4,19zM27.8,11.6L25,11.6L29,11.1L29,8.4L25.2,8.4L29,7.9C29,6.3,29,5.3,28.9,5L30.8,5.8L30.1,7.9L33.6,7.9C33.6,6.7,33.6,5.7,33.5,5.1L35.4,5.9L34.7,7.9L36.2,7.9L38.7,8.4L34.7,8.4L34.7,11.1L37.3,11.1L38.5,10L40.1,11.6L31.5,11.6C32.1,12.8,32.8,13.9,33.6,14.8C34.9,13.8,35.9,12.9,36.7,11.9L37.8,13.3C37.3,13.3,36,13.9,33.9,15.1C34.8,15.8,35.7,16.3,36.9,16.7C38,17,39.2,17.2,40.5,17.2C39.5,17.7,38.9,18.1,38.7,18.7C37.2,18.5,35.8,17.8,34.3,16.6C32.8,15.5,31.8,13.8,31.1,11.6L28.9,11.6L28.9,17.2L32.3,15.8C30.4,17.2,29.1,18.2,28.4,19.1L27.5,17.8C27.7,17.6,27.8,17.2,27.8,16.7L27.8,11.6zM48.5,8L57.5,8L60,8.5L51.3,8.5C50.4,8.5,49.8,8.6,48.5,8zM56.1,14.4C57.1,15,58,15.6,58.8,16.3C59.5,16.9,59.9,17.4,60,17.8C60,18.3,59.9,18.6,59.7,18.9C59.5,19.1,59.4,19.2,59.3,19.2C59.1,19.2,59,19.2,59,19C58.7,18.6,58.5,18.1,58.1,17.5C55.5,17.7,53.5,17.9,51.9,18.2C50.3,18.4,49.3,18.7,48.8,19L47.9,17.4C48.7,17.4,49.5,16.7,50.6,15.3C51.6,14,52.4,12.9,52.7,11.9L49.6,11.9C48.9,11.9,48.2,11.9,47.6,12.1L59,11.4L60,10.3L61.6,11.9L53,11.9L54.6,12.9C54.1,13.1,53.4,13.6,52.5,14.5C51.6,15.5,50.6,16.4,49.4,17.4L58,17.2C57.5,16.4,56.8,15.6,56.1,14.4zM46.8,1.7L46.8,4.6L58.4,4.6L58.4,1.7L46.8,1.7zM42.5,19.2C43.5,17.6,44.3,15.9,44.7,14.2C45.1,12.5,45.4,10.8,45.5,9.1C45.5,7.4,45.5,5.8,45.5,4.4C45.5,3,45.5,1.7,45.5,.6L46.8,1.2L58.3,1.2L60.3,1.6C59.6,2.7,59.6,3.3,59.6,3.9C59.6,4.6,59.7,5.1,59.7,5.6L58.4,6.1L46.8,5.1C46.8,6.7,46.7,8.4,46.5,10.1C46.4,11.8,46,13.4,45.5,14.9C45,16.4,44,17.9,42.5,19.2z" transform="translate(836.51,378.47)"/>
    </g>
</svg>
